# xmcd
#
# Track frame offsets: 
#        182
#        13427
#        28260
#        41710
#        55877
#        70280
#        84337
#        97782
#        112277
#        127185
#        141322
#        156475
#        171885
#        186245
#        199697
#        211477
#
# Disc length: 3020 seconds
#
# Revision: 1
# Processed by: cddbd v1.5.1PL0 Copyright (c) Steve Scherf et al.
# Submitted via: ExactAudioCopy v0.90b4
#
DISCID=f70bca10
DTITLE=Billie Holiday - The Essential Recordings
DYEAR=1993
DGENRE=Vocal
TTITLE0=That Ole Devil Called Love
TTITLE1=Keeps On A-Rainin' (Papa He Can't Make No Time)
TTITLE2=Porgy
TTITLE3=No Good Man
TTITLE4=God Bless The Child
TTITLE5=What Is This Thing Called Love?
TTITLE6=My Man
TTITLE7=Easy Living
TTITLE8=Lover Man (Oh, Where Can You Be?)
TTITLE9=Good Morning Heartache
TTITLE10=T'Ain't Nobody's Business If I Do
TTITLE11=You're My Thrill
TTITLE12=Solitude
TTITLE13=There Is No Greater Love
TTITLE14=You Better Go Now
TTITLE15=Weep No More
EXTD=
EXTT0=
EXTT1=
EXTT2=
EXTT3=
EXTT4=
EXTT5=
EXTT6=
EXTT7=
EXTT8=
EXTT9=
EXTT10=
EXTT11=
EXTT12=
EXTT13=
EXTT14=
EXTT15=
PLAYORDER=
